HIERARCHY
ROOT Hips
{
	OFFSET 0.000000 0.000000 0.000000
	CHANNELS 6 Xposition Yposition Zposition Zrotation Yrotation Xrotation 
	JOINT LHipJoint
	{
		OFFSET 0.000000 0.000000 0.000000
		CHANNELS 3 Zrotation Yrotation Xrotation
		JOINT LeftUpLeg
		{
			OFFSET 1.363060 -1.794630 0.839290
			CHANNELS 3 Zrotation Yrotation Xrotation
			JOINT LeftLeg
			{
				OFFSET 2.448110 -6.726130 0.000000
				CHANNELS 3 Zrotation Yrotation Xrotation
				JOINT LeftFoot
				{
					OFFSET 2.562200 -7.039590 0.000000
					CHANNELS 3 Zrotation Yrotation Xrotation
					JOINT LeftToeBase
					{
						OFFSET 0.157640 -0.433110 2.322550
						CHANNELS 3 Zrotation Yrotation Xrotation
						End Site
						{
							OFFSET 0.000000 0.000000 0.000000
						}
					}
				}
			}
		}
	}
	JOINT RHipJoint
	{
		OFFSET 0.000000 0.000000 0.000000
		CHANNELS 3 Zrotation Yrotation Xrotation
		JOINT RightUpLeg
		{
			OFFSET -1.305520 -1.794630 0.839290
			CHANNELS 3 Zrotation Yrotation Xrotation
			JOINT RightLeg
			{
				OFFSET -2.542530 -6.985550 0.000000
				CHANNELS 3 Zrotation Yrotation Xrotation
				JOINT RightFoot
				{
					OFFSET -2.568260 -7.056230 0.000000
					CHANNELS 3 Zrotation Yrotation Xrotation
					JOINT RightToeBase
					{
						OFFSET -0.164730 -0.452590 2.363150
						CHANNELS 3 Zrotation Yrotation Xrotation
						End Site
						{
							OFFSET 0.000000 0.000000 0.000000
						}
					}
				}
			}
		}
	}
	JOINT LowerBack
	{
		OFFSET 0.000000 0.000000 0.000000
		CHANNELS 3 Zrotation Yrotation Xrotation
		JOINT Spine
		{
			OFFSET 0.028270 2.035590 -0.193380
			CHANNELS 3 Zrotation Yrotation Xrotation
			JOINT Spine1
			{
				OFFSET 0.056720 2.048850 -0.042750
				CHANNELS 3 Zrotation Yrotation Xrotation
				JOINT Neck
				{
					OFFSET 0.000000 0.000000 0.000000
					CHANNELS 3 Zrotation Yrotation Xrotation
					JOINT Neck1
					{
						OFFSET -0.054170 1.746240 0.172020
						CHANNELS 3 Zrotation Yrotation Xrotation
						JOINT Head
						{
							OFFSET 0.104070 1.761360 -0.123970
							CHANNELS 3 Zrotation Yrotation Xrotation
							End Site
							{
								OFFSET 0.000000 0.000000 0.000000
							}
						}
					}
				}
				JOINT LeftShoulder
				{
					OFFSET 0.000000 0.000000 0.000000
					CHANNELS 3 Zrotation Yrotation Xrotation
					JOINT LeftArm
					{
						OFFSET 3.362410 1.200890 -0.311210
						CHANNELS 3 Zrotation Yrotation Xrotation
						JOINT LeftForeArm
						{
							OFFSET 4.983000 -0.000000 -0.000000
							CHANNELS 3 Zrotation Yrotation Xrotation
							JOINT LeftHand
							{
								OFFSET 3.483560 -0.000000 -0.000000
								CHANNELS 3 Zrotation Yrotation Xrotation
								JOINT LeftFingerBase
								{
									OFFSET 0.000000 0.000000 0.000000
									CHANNELS 3 Zrotation Yrotation Xrotation
									JOINT LeftHandIndex1
									{
										OFFSET 0.715260 -0.000000 -0.000000
										CHANNELS 3 Zrotation Yrotation Xrotation
										End Site
										{
											OFFSET 0.000000 0.000000 0.000000
										}
									}
								}
								JOINT LThumb
								{
									OFFSET 0.000000 0.000000 0.000000
									CHANNELS 3 Zrotation Yrotation Xrotation
									End Site
									{
										OFFSET 0.000000 0.000000 0.000000
									}
								}
							}
						}
					}
				}
				JOINT RightShoulder
				{
					OFFSET 0.000000 0.000000 0.000000
					CHANNELS 3 Zrotation Yrotation Xrotation
					JOINT RightArm
					{
						OFFSET -3.136600 1.374050 -0.404650
						CHANNELS 3 Zrotation Yrotation Xrotation
						JOINT RightForeArm
						{
							OFFSET -5.241900 -0.000000 -0.000000
							CHANNELS 3 Zrotation Yrotation Xrotation
							JOINT RightHand
							{
								OFFSET -3.444170 -0.000000 -0.000000
								CHANNELS 3 Zrotation Yrotation Xrotation
								JOINT RightFingerBase
								{
									OFFSET 0.000000 0.000000 0.000000
									CHANNELS 3 Zrotation Yrotation Xrotation
									JOINT RightHandIndex1
									{
										OFFSET -0.622530 -0.000000 -0.000000
										CHANNELS 3 Zrotation Yrotation Xrotation
										End Site
										{
											OFFSET 0.000000 0.000000 0.000000
										}
									}
								}
								JOINT RThumb
								{
									OFFSET 0.000000 0.000000 0.000000
									CHANNELS 3 Zrotation Yrotation Xrotation
									End Site
									{
										OFFSET 0.000000 0.000000 0.000000
									}
								}
							}
						}
					}
				}
			}
		}
	}
}
MOTION
Frames: 7
Frame Time: 0.033333
-0.060759 17.173553 -0.060759 -3.166527 -10.036603 5.653155 -3.227240 20.486240 4.377803 -15.118198 -5.599896 -16.845670 -6.827665 -9.345572 -29.260211 3.252099 19.337970 41.453241 0.000000 0.000000 0.000000 -0.035637 -27.127331 -10.451694 43.022845 12.056603 -3.753216 -17.634323 1.968248 35.047593 -1.972793 14.990882 -25.493824 0.000000 0.000000 0.000000 0.037218 2.129277 12.589573 3.337359 2.119377 -0.373789 1.500462 2.721807 -8.882737 -3.489379 0.565427 0.852262 3.447874 0.024456 2.423483 0.000000 0.000000 0.000000 -0.130020 14.185171 10.991287 -68.417004 -1.795273 20.127738 -13.993062 -79.586631 0.375959 2.221146 -15.279791 0.181009 2.282934 -15.275812 0.000000 0.000000 0.000000 0.000000 0.000000 0.000000 0.000000 5.931722 -16.765162 4.158143 52.052891 9.070303 4.711724 25.741847 26.816451 0.055009 0.425970 4.783594 0.027386 0.423376 4.784550 0.000000 0.000000 0.000000 0.000000 0.000000 0.000000 0.000000 
-0.053615 17.202149 0.095377 -2.883033 -9.927085 5.784764 -2.867935 20.499495 4.166046 -15.959287 -5.585623 -16.346205 -6.781287 -9.092592 -28.322136 2.764616 18.324155 39.296182 0.000000 0.000000 0.000000 0.032840 -26.771920 -10.125314 42.135491 12.562659 -4.408074 -17.395419 1.616941 36.127727 -1.854682 14.787965 -25.826425 0.000000 0.000000 0.000000 -0.109424 2.085601 12.473867 3.347346 2.038549 -0.506624 1.539223 2.631353 -9.010686 -3.838984 0.607374 1.209479 3.579480 0.022281 2.468470 0.000000 0.000000 0.000000 -0.276949 14.183099 11.084201 -68.305709 -1.704278 20.302977 -14.498143 -79.332024 0.380977 2.129492 -15.313728 0.183557 2.190298 -15.310320 0.000000 0.000000 0.000000 0.000000 0.000000 0.000000 0.000000 6.446709 -16.967461 3.882315 51.414556 9.071539 4.425564 25.359325 25.551288 0.050728 0.421760 4.597835 0.025258 0.419369 4.598729 0.000000 0.000000 0.000000 0.000000 0.000000 0.000000 0.000000 
-0.044212 17.232564 0.250913 -2.604389 -9.807966 5.919597 -2.528874 20.504926 3.934670 -16.773523 -5.575691 -15.876111 -6.738690 -8.811134 -27.295348 2.316705 17.284040 37.091043 0.000000 0.000000 0.000000 0.107490 -26.389226 -9.782866 41.209760 13.042128 -5.078386 -17.145559 1.260069 37.139260 -1.731166 14.568788 -26.083285 0.000000 0.000000 0.000000 -0.248706 2.035283 12.353321 3.363851 1.954121 -0.638986 1.576581 2.537372 -9.137073 -4.196259 0.650167 1.571830 3.712392 0.019960 2.509487 0.000000 0.000000 0.000000 -0.429170 14.178483 11.178930 -68.192374 -1.614806 20.472004 -15.002842 -79.074704 0.385860 2.038425 -15.346629 0.186039 2.098244 -15.343777 0.000000 0.000000 0.000000 0.000000 0.000000 0.000000 0.000000 6.971923 -17.162020 3.605603 50.760216 9.064786 4.154558 24.968002 24.332071 0.046786 0.417993 4.420154 0.023299 0.415792 4.420990 0.000000 0.000000 0.000000 0.000000 0.000000 0.000000 0.000000 
-0.032600 17.264351 0.405445 -2.332518 -9.681363 6.055461 -2.211865 20.507165 3.687653 -17.556395 -5.570884 -15.439840 -6.702078 -8.501177 -26.186130 1.910402 16.227898 34.855863 0.000000 0.000000 0.000000 0.187296 -25.985648 -9.427972 40.254214 13.488513 -5.755482 -16.889122 0.900063 38.079416 -1.605701 14.339009 -26.270715 0.000000 0.000000 0.000000 -0.380089 1.977752 12.229835 3.387852 1.866773 -0.765766 1.605297 2.440705 -9.269234 -4.554951 0.693090 1.937457 3.848712 0.017231 2.550743 0.000000 0.000000 0.000000 -0.604673 14.183388 11.286001 -68.084843 -1.533225 20.549675 -15.201167 -78.968581 0.388997 1.984565 -15.346468 0.187669 2.043454 -15.343954 0.000000 0.000000 0.000000 0.000000 0.000000 0.000000 0.000000 7.512935 -17.349391 3.327328 50.089085 9.047279 3.897681 24.572489 23.157615 0.043151 0.415082 4.250359 0.021492 0.413058 4.251142 0.000000 0.000000 0.000000 0.000000 0.000000 0.000000 0.000000 
-0.019343 17.297101 0.558610 -2.068385 -9.548974 6.191054 -1.918966 20.509412 3.428681 -18.304374 -5.572498 -15.041036 -6.667419 -8.163834 -25.002692 1.546036 15.164765 32.610130 0.000000 0.000000 0.000000 0.271046 -25.567059 -9.064138 39.276327 13.897465 -6.432662 -16.624915 0.536752 38.949102 -1.480367 14.102067 -26.395886 0.000000 0.000000 0.000000 -0.501684 1.914435 12.105214 3.418254 1.776979 -0.891934 1.631993 2.341601 -9.399132 -4.921409 0.737079 2.307845 3.986643 0.014373 2.587802 0.000000 0.000000 0.000000 -0.785598 14.186689 11.394919 -67.974779 -1.452087 20.623527 -15.394590 -78.863970 0.392026 1.931866 -15.345848 0.189243 1.989837 -15.343659 0.000000 0.000000 0.000000 0.000000 0.000000 0.000000 0.000000 8.063995 -17.528288 3.049048 49.401081 9.021780 3.654472 24.172812 22.029853 0.039795 0.412690 4.088447 0.019824 0.410828 4.089179 0.000000 0.000000 0.000000 0.000000 0.000000 0.000000 0.000000 
-0.002687 17.331260 0.711929 -1.959674 -9.105310 6.351403 -1.513429 20.439311 3.029388 -19.024121 -5.602351 -14.609261 -6.725396 -7.799758 -23.582767 1.185386 13.977775 30.268316 0.000000 0.000000 0.000000 -0.071356 -25.039909 -8.658118 38.139763 13.596607 -6.727182 -15.230945 -0.200914 38.553636 -1.440354 14.114954 -27.119117 0.000000 0.000000 0.000000 -0.447957 1.786008 12.129577 3.072294 1.626090 -0.941254 1.578233 2.208155 -9.256594 -4.541480 0.668869 2.063441 3.912456 -0.005495 2.812384 0.000000 0.000000 0.000000 -0.448964 14.255495 11.169925 -68.086940 -1.686889 20.715680 -15.153002 -79.009002 0.392843 1.996076 -15.376981 0.189539 2.055163 -15.374442 0.000000 0.000000 0.000000 0.000000 0.000000 0.000000 0.000000 7.240240 -17.593342 3.424168 50.487343 9.024053 4.232364 25.140488 24.313065 0.047997 0.442315 4.424014 0.023905 0.440145 4.424871 0.000000 0.000000 0.000000 0.000000 0.000000 0.000000 0.000000 
0.015673 17.365588 0.863799 -1.848714 -8.640237 6.514012 -1.147599 20.362267 2.615978 -19.705052 -5.645860 -14.222109 -6.775301 -7.407256 -22.090320 0.868370 12.796657 27.939785 0.000000 0.000000 0.000000 -0.372139 -24.477504 -8.229998 36.938937 13.284552 -7.038829 -13.790854 -0.938052 38.082428 -1.391647 14.115954 -27.807791 0.000000 0.000000 0.000000 -0.398320 1.646383 12.145899 2.768285 1.470060 -0.990279 1.503655 2.070497 -9.098849 -4.190793 0.606522 1.829441 3.850406 -0.023670 3.023620 0.000000 0.000000 0.000000 -0.129294 14.313675 10.946462 -68.189868 -1.927144 20.798739 -14.897907 -79.160442 0.393324 2.064010 -15.407511 0.189662 2.124278 -15.404589 0.000000 0.000000 0.000000 0.000000 0.000000 0.000000 0.000000 6.442217 -17.632886 3.813737 51.530846 8.987336 4.894794 26.106199 26.832521 0.057945 0.476404 4.800720 0.028853 0.473879 4.801725 0.000000 0.000000 0.000000 0.000000 0.000000 0.000000 0.000000 
